<svg width="591" height="394" viewBox="0 0 591 394" fill="none" xmlns="http://www.w3.org/2000/svg">
<rect width="591" height="394" rx="8" fill="url(#paint0_linear_3575_60842)"/>
<g filter="url(#filter0_d_3575_60842)">
<rect x="246" y="211" width="100" height="100" rx="8" fill="#63D0FF"/>
<rect x="246.5" y="211.5" width="99" height="99" rx="7.5" stroke="#007DB4" stroke-opacity="0.07"/>
</g>
<path d="M287.422 231.312L307.589 242.983C311.571 245.302 314.847 250.473 314.852 254.482V272.318C314.852 276.351 311.585 277.713 307.594 275.399L301.142 271.676V247.368L287.422 239.407V231.312Z" fill="black"/>
<path d="M298.402 249.111L279.852 238.34V278.042L298.402 288.812V249.111Z" fill="black"/>
<rect x="380" y="83.2842" width="154" height="112" rx="4" fill="white"/>
<rect x="380" y="83.2842" width="154" height="112" rx="4" fill="url(#paint1_radial_3575_60842)"/>
<path d="M397.562 127.177V130.038C398.045 130.024 398.423 129.89 398.695 129.635C398.968 129.381 399.104 129.033 399.104 128.594C399.104 128.185 398.981 127.869 398.735 127.645C398.489 127.416 398.098 127.26 397.562 127.177ZM396.902 125.924V123.202C396.445 123.219 396.087 123.351 395.828 123.597C395.573 123.844 395.446 124.173 395.446 124.586C395.446 124.964 395.564 125.263 395.802 125.483C396.043 125.702 396.41 125.85 396.902 125.924ZM397.562 132.984H396.902L396.896 131C396.448 130.978 396.001 130.917 395.558 130.815C395.118 130.714 394.683 130.574 394.252 130.394V129.207C394.692 129.479 395.134 129.688 395.577 129.833C396.026 129.978 396.467 130.055 396.902 130.064V127.045C396.023 126.909 395.362 126.641 394.918 126.241C394.474 125.841 394.252 125.311 394.252 124.652C394.252 123.962 394.483 123.413 394.945 123.004C395.41 122.591 396.063 122.354 396.902 122.292V120.743H397.562L397.568 122.292C397.915 122.314 398.267 122.358 398.623 122.424C398.979 122.49 399.341 122.58 399.71 122.694V123.835C399.337 123.646 398.972 123.501 398.616 123.4C398.265 123.294 397.913 123.233 397.562 123.215V126.056C398.467 126.192 399.157 126.474 399.631 126.9C400.106 127.326 400.343 127.878 400.343 128.554C400.343 129.231 400.086 129.796 399.572 130.249C399.062 130.701 398.394 130.947 397.568 130.987L397.562 132.984ZM413.316 121.521V123.617H416.071V124.56H413.316V128.568C413.316 129.113 413.419 129.493 413.626 129.708C413.832 129.923 414.193 130.031 414.707 130.031H416.071V131H414.588C413.678 131 413.037 130.818 412.663 130.453C412.29 130.088 412.103 129.46 412.103 128.568V124.56H410.132V123.617H412.103V121.521H413.316ZM424.786 126.702V127.295H419.532V127.335C419.497 128.341 419.688 129.064 420.105 129.504C420.527 129.943 421.121 130.163 421.885 130.163C422.272 130.163 422.676 130.101 423.098 129.978C423.52 129.855 423.97 129.668 424.449 129.418V130.624C423.988 130.813 423.542 130.954 423.111 131.046C422.685 131.143 422.272 131.191 421.872 131.191C420.725 131.191 419.829 130.848 419.183 130.163C418.537 129.473 418.214 128.524 418.214 127.315C418.214 126.137 418.53 125.197 419.163 124.494C419.796 123.791 420.639 123.439 421.694 123.439C422.635 123.439 423.375 123.758 423.916 124.395C424.46 125.032 424.75 125.801 424.786 126.702ZM423.573 126.346C423.52 125.836 423.333 125.397 423.012 125.028C422.696 124.654 422.239 124.468 421.641 124.468C421.057 124.468 420.576 124.661 420.198 125.048C419.82 125.434 419.613 125.869 419.578 126.353L423.573 126.346ZM433.151 125.14C432.891 124.938 432.628 124.791 432.36 124.698C432.092 124.606 431.797 124.56 431.476 124.56C430.72 124.56 430.143 124.797 429.743 125.272C429.343 125.746 429.143 126.432 429.143 127.328V131H427.923V123.617H429.143V125.061C429.345 124.538 429.655 124.138 430.072 123.861C430.494 123.58 430.993 123.439 431.569 123.439C431.867 123.439 432.146 123.477 432.406 123.551C432.665 123.626 432.913 123.742 433.151 123.901V125.14ZM441.285 125.14C441.026 124.938 440.762 124.791 440.494 124.698C440.226 124.606 439.931 124.56 439.611 124.56C438.855 124.56 438.277 124.797 437.877 125.272C437.477 125.746 437.277 126.432 437.277 127.328V131H436.058V123.617H437.277V125.061C437.479 124.538 437.789 124.138 438.207 123.861C438.628 123.58 439.127 123.439 439.703 123.439C440.002 123.439 440.281 123.477 440.54 123.551C440.799 123.626 441.048 123.742 441.285 123.901V125.14ZM446.433 127.289H446.031C445.323 127.289 444.79 127.414 444.429 127.665C444.073 127.911 443.895 128.28 443.895 128.772C443.895 129.216 444.029 129.561 444.297 129.807C444.565 130.053 444.937 130.176 445.411 130.176C446.079 130.176 446.604 129.945 446.987 129.484C447.369 129.018 447.562 128.376 447.567 127.559V127.289H446.433ZM448.786 126.788V131H447.567V129.906C447.308 130.345 446.98 130.67 446.585 130.881C446.194 131.088 445.717 131.191 445.154 131.191C444.403 131.191 443.803 130.98 443.355 130.558C442.906 130.132 442.682 129.563 442.682 128.851C442.682 128.029 442.957 127.405 443.506 126.979C444.06 126.553 444.871 126.34 445.939 126.34H447.567V126.148C447.562 125.56 447.413 125.133 447.119 124.87C446.824 124.602 446.354 124.468 445.708 124.468C445.295 124.468 444.877 124.527 444.456 124.646C444.034 124.764 443.623 124.938 443.223 125.166V123.953C443.671 123.782 444.1 123.655 444.508 123.571C444.921 123.483 445.321 123.439 445.708 123.439C446.319 123.439 446.84 123.529 447.27 123.709C447.705 123.89 448.057 124.16 448.325 124.52C448.492 124.74 448.611 125.012 448.681 125.338C448.751 125.658 448.786 126.142 448.786 126.788ZM456.947 120.743V121.752H455.569C455.134 121.752 454.831 121.842 454.66 122.022C454.493 122.198 454.409 122.512 454.409 122.965V123.617H456.947V124.56H454.409V131H453.196V124.56H451.225V123.617H453.196V123.103C453.196 122.294 453.381 121.699 453.75 121.317C454.124 120.934 454.704 120.743 455.49 120.743H456.947ZM462.135 124.468C461.52 124.468 461.054 124.707 460.737 125.186C460.421 125.665 460.263 126.375 460.263 127.315C460.263 128.251 460.421 128.961 460.737 129.444C461.054 129.923 461.52 130.163 462.135 130.163C462.754 130.163 463.222 129.923 463.539 129.444C463.855 128.961 464.013 128.251 464.013 127.315C464.013 126.375 463.855 125.665 463.539 125.186C463.222 124.707 462.754 124.468 462.135 124.468ZM462.135 123.439C463.159 123.439 463.941 123.771 464.481 124.435C465.026 125.098 465.299 126.058 465.299 127.315C465.299 128.576 465.029 129.539 464.488 130.202C463.948 130.862 463.163 131.191 462.135 131.191C461.111 131.191 460.329 130.862 459.788 130.202C459.248 129.539 458.977 128.576 458.977 127.315C458.977 126.058 459.248 125.098 459.788 124.435C460.329 123.771 461.111 123.439 462.135 123.439ZM473.822 125.14C473.563 124.938 473.299 124.791 473.031 124.698C472.763 124.606 472.469 124.56 472.148 124.56C471.392 124.56 470.814 124.797 470.414 125.272C470.014 125.746 469.814 126.432 469.814 127.328V131H468.595V123.617H469.814V125.061C470.016 124.538 470.326 124.138 470.744 123.861C471.166 123.58 471.664 123.439 472.24 123.439C472.539 123.439 472.818 123.477 473.077 123.551C473.336 123.626 473.585 123.742 473.822 123.901V125.14ZM478.799 124.369C478.948 124.052 479.137 123.819 479.366 123.67C479.599 123.516 479.878 123.439 480.203 123.439C480.796 123.439 481.214 123.67 481.455 124.131C481.701 124.588 481.824 125.452 481.824 126.722V131H480.717V126.775C480.717 125.733 480.658 125.087 480.539 124.837C480.425 124.582 480.214 124.454 479.906 124.454C479.555 124.454 479.313 124.591 479.181 124.863C479.054 125.131 478.99 125.768 478.99 126.775V131H477.883V126.775C477.883 125.72 477.819 125.07 477.691 124.823C477.568 124.577 477.344 124.454 477.019 124.454C476.698 124.454 476.474 124.591 476.347 124.863C476.224 125.131 476.162 125.768 476.162 126.775V131H475.061V123.617H476.162V124.25C476.307 123.986 476.487 123.786 476.703 123.65C476.922 123.51 477.171 123.439 477.448 123.439C477.781 123.439 478.058 123.516 478.278 123.67C478.502 123.824 478.676 124.057 478.799 124.369ZM395.472 148.071V151.808H394.252V141.617H395.472V142.56C395.674 142.195 395.942 141.918 396.276 141.729C396.615 141.536 397.003 141.439 397.443 141.439C398.335 141.439 399.034 141.784 399.539 142.474C400.049 143.164 400.304 144.12 400.304 145.342C400.304 146.541 400.049 147.484 399.539 148.169C399.029 148.851 398.331 149.191 397.443 149.191C396.995 149.191 396.601 149.097 396.263 148.908C395.929 148.714 395.665 148.435 395.472 148.071ZM399.031 145.315C399.031 144.375 398.882 143.665 398.583 143.186C398.289 142.707 397.849 142.468 397.265 142.468C396.676 142.468 396.23 142.709 395.927 143.193C395.624 143.672 395.472 144.379 395.472 145.315C395.472 146.247 395.624 146.954 395.927 147.438C396.23 147.921 396.676 148.163 397.265 148.163C397.849 148.163 398.289 147.923 398.583 147.444C398.882 146.965 399.031 146.256 399.031 145.315ZM405.874 146.33C405.874 146.875 405.973 147.286 406.17 147.563C406.373 147.84 406.669 147.978 407.06 147.978H408.478V149H406.942C406.217 149 405.654 148.769 405.254 148.308C404.859 147.842 404.661 147.183 404.661 146.33V139.653H402.716V138.704H405.874V146.33ZM413.896 145.289H413.494C412.786 145.289 412.252 145.414 411.892 145.665C411.536 145.911 411.358 146.28 411.358 146.772C411.358 147.216 411.492 147.561 411.76 147.807C412.028 148.053 412.4 148.176 412.874 148.176C413.542 148.176 414.067 147.945 414.45 147.484C414.832 147.018 415.025 146.376 415.03 145.559V145.289H413.896ZM416.249 144.788V149H415.03V147.906C414.771 148.345 414.443 148.67 414.048 148.881C413.656 149.088 413.18 149.191 412.617 149.191C411.866 149.191 411.266 148.98 410.818 148.558C410.369 148.132 410.145 147.563 410.145 146.851C410.145 146.029 410.42 145.405 410.969 144.979C411.523 144.553 412.334 144.34 413.402 144.34H415.03V144.148C415.025 143.56 414.876 143.133 414.582 142.87C414.287 142.602 413.817 142.468 413.171 142.468C412.758 142.468 412.34 142.527 411.918 142.646C411.497 142.764 411.086 142.938 410.686 143.166V141.953C411.134 141.782 411.562 141.655 411.971 141.571C412.384 141.483 412.784 141.439 413.171 141.439C413.782 141.439 414.302 141.529 414.733 141.709C415.168 141.89 415.52 142.16 415.788 142.52C415.955 142.74 416.073 143.012 416.144 143.338C416.214 143.658 416.249 144.142 416.249 144.788ZM424.331 144.425V149H423.111V144.425C423.111 143.762 422.995 143.274 422.762 142.962C422.529 142.65 422.164 142.494 421.668 142.494C421.101 142.494 420.664 142.696 420.356 143.1C420.053 143.5 419.901 144.076 419.901 144.827V149H418.688V141.617H419.901V142.725C420.116 142.303 420.409 141.984 420.778 141.769C421.147 141.549 421.584 141.439 422.09 141.439C422.841 141.439 423.401 141.688 423.771 142.184C424.144 142.676 424.331 143.423 424.331 144.425Z" fill="#343536"/>
<path d="M380 87C380 84.7909 381.791 83 384 83H530C532.209 83 534 84.7909 534 87V100.468H380V87Z" fill="black"/>
<ellipse cx="390.463" cy="92.1311" rx="2.92934" ry="2.779" fill="#343536"/>
<ellipse cx="398.832" cy="92.1311" rx="2.92934" ry="2.779" fill="#343536"/>
<ellipse cx="407.201" cy="92.1311" rx="2.92934" ry="2.779" fill="#343536"/>
<rect x="54" y="83.2842" width="154" height="112" rx="4" fill="white"/>
<rect x="54" y="83.2842" width="154" height="112" rx="4" fill="url(#paint2_radial_3575_60842)"/>
<path d="M71.5615 126.461V129.322C72.0449 129.309 72.4229 129.175 72.6953 128.92C72.9678 128.665 73.104 128.318 73.104 127.878C73.104 127.469 72.981 127.153 72.7349 126.929C72.4888 126.7 72.0977 126.544 71.5615 126.461ZM70.9023 125.208V122.486C70.4453 122.504 70.0872 122.635 69.8279 122.882C69.573 123.128 69.4456 123.457 69.4456 123.87C69.4456 124.248 69.5642 124.547 69.8015 124.767C70.0432 124.987 70.4102 125.134 70.9023 125.208ZM71.5615 132.268H70.9023L70.8958 130.284C70.4475 130.262 70.0015 130.201 69.5576 130.1C69.1182 129.999 68.6831 129.858 68.2524 129.678V128.491C68.6919 128.764 69.1335 128.972 69.5774 129.117C70.0256 129.262 70.4673 129.339 70.9023 129.348V126.329C70.0234 126.193 69.3621 125.925 68.9182 125.525C68.4744 125.125 68.2524 124.595 68.2524 123.936C68.2524 123.246 68.4832 122.697 68.9446 122.288C69.4104 121.875 70.063 121.638 70.9023 121.576V120.027H71.5615L71.5681 121.576C71.9153 121.598 72.2668 121.642 72.6228 121.708C72.9788 121.774 73.3413 121.864 73.7104 121.979V123.119C73.3369 122.93 72.9722 122.785 72.6162 122.684C72.2646 122.578 71.9131 122.517 71.5615 122.499V125.34C72.4668 125.477 73.1567 125.758 73.6313 126.184C74.106 126.61 74.3433 127.162 74.3433 127.839C74.3433 128.515 74.0862 129.08 73.572 129.533C73.0623 129.985 72.3943 130.231 71.5681 130.271L71.5615 132.268ZM85.7405 129.355V133.092H84.521V122.901H85.7405V123.844C85.9426 123.479 86.2107 123.202 86.5447 123.013C86.8831 122.82 87.272 122.723 87.7114 122.723C88.6035 122.723 89.3022 123.068 89.8076 123.758C90.3174 124.448 90.5723 125.404 90.5723 126.626C90.5723 127.825 90.3174 128.768 89.8076 129.454C89.2979 130.135 88.5991 130.475 87.7114 130.475C87.2632 130.475 86.8699 130.381 86.5315 130.192C86.1975 129.999 85.9338 129.719 85.7405 129.355ZM89.3 126.599C89.3 125.659 89.1506 124.949 88.8518 124.47C88.5574 123.991 88.1179 123.752 87.5334 123.752C86.9446 123.752 86.4985 123.993 86.1953 124.477C85.8921 124.956 85.7405 125.663 85.7405 126.599C85.7405 127.531 85.8921 128.239 86.1953 128.722C86.4985 129.205 86.9446 129.447 87.5334 129.447C88.1179 129.447 88.5574 129.208 88.8518 128.729C89.1506 128.25 89.3 127.54 89.3 126.599ZM96.0303 126.573H95.6282C94.9207 126.573 94.3867 126.698 94.0264 126.949C93.6704 127.195 93.4924 127.564 93.4924 128.056C93.4924 128.5 93.6265 128.845 93.8945 129.091C94.1626 129.337 94.5339 129.46 95.0085 129.46C95.6765 129.46 96.2017 129.229 96.584 128.768C96.9663 128.302 97.1597 127.661 97.1641 126.843V126.573H96.0303ZM98.3835 126.072V130.284H97.1641V129.19C96.9048 129.629 96.5774 129.955 96.1819 130.166C95.7908 130.372 95.314 130.475 94.7515 130.475C94 130.475 93.4001 130.264 92.9519 129.843C92.5037 129.416 92.2795 128.847 92.2795 128.135C92.2795 127.313 92.5542 126.689 93.1035 126.263C93.6572 125.837 94.468 125.624 95.5359 125.624H97.1641V125.433C97.1597 124.844 97.0103 124.417 96.7158 124.154C96.4214 123.886 95.9512 123.752 95.3052 123.752C94.8921 123.752 94.4746 123.811 94.0527 123.93C93.6309 124.048 93.22 124.222 92.8201 124.45V123.238C93.2683 123.066 93.6968 122.939 94.1055 122.855C94.5186 122.767 94.9185 122.723 95.3052 122.723C95.916 122.723 96.4368 122.813 96.8674 122.994C97.3025 123.174 97.6541 123.444 97.9221 123.804C98.0891 124.024 98.2078 124.297 98.2781 124.622C98.3484 124.943 98.3835 125.426 98.3835 126.072ZM106.531 129.908C106.206 130.097 105.87 130.238 105.522 130.33C105.18 130.427 104.828 130.475 104.468 130.475C103.325 130.475 102.431 130.133 101.785 129.447C101.143 128.761 100.823 127.812 100.823 126.599C100.823 125.386 101.143 124.437 101.785 123.752C102.431 123.066 103.325 122.723 104.468 122.723C104.824 122.723 105.171 122.77 105.509 122.862C105.848 122.954 106.188 123.097 106.531 123.29V124.562C106.21 124.277 105.887 124.07 105.562 123.943C105.241 123.815 104.876 123.752 104.468 123.752C103.708 123.752 103.123 123.998 102.714 124.49C102.306 124.982 102.101 125.685 102.101 126.599C102.101 127.509 102.306 128.212 102.714 128.709C103.127 129.201 103.712 129.447 104.468 129.447C104.89 129.447 105.268 129.383 105.602 129.256C105.936 129.124 106.245 128.922 106.531 128.649V129.908ZM109.227 120.027H110.479V125.967L113.663 122.901H115.14L112.233 125.683L115.595 130.284H114.112L111.383 126.474L110.479 127.324V130.284H109.227V120.027ZM123.188 125.986V126.58H117.935V126.619C117.9 127.625 118.091 128.348 118.508 128.788C118.93 129.227 119.523 129.447 120.288 129.447C120.675 129.447 121.079 129.385 121.501 129.262C121.923 129.139 122.373 128.953 122.852 128.702V129.908C122.391 130.097 121.945 130.238 121.514 130.33C121.088 130.427 120.675 130.475 120.275 130.475C119.128 130.475 118.231 130.133 117.585 129.447C116.939 128.757 116.616 127.808 116.616 126.599C116.616 125.422 116.933 124.481 117.566 123.778C118.198 123.075 119.042 122.723 120.097 122.723C121.037 122.723 121.778 123.042 122.318 123.679C122.863 124.316 123.153 125.085 123.188 125.986ZM121.976 125.63C121.923 125.121 121.736 124.681 121.415 124.312C121.099 123.938 120.642 123.752 120.044 123.752C119.46 123.752 118.979 123.945 118.601 124.332C118.223 124.719 118.016 125.154 117.981 125.637L121.976 125.63ZM131.553 124.424C131.294 124.222 131.031 124.075 130.762 123.982C130.494 123.89 130.2 123.844 129.879 123.844C129.123 123.844 128.545 124.081 128.146 124.556C127.746 125.031 127.546 125.716 127.546 126.613V130.284H126.326V122.901H127.546V124.345C127.748 123.822 128.058 123.422 128.475 123.145C128.897 122.864 129.396 122.723 129.971 122.723C130.27 122.723 130.549 122.761 130.809 122.835C131.068 122.91 131.316 123.027 131.553 123.185V124.424ZM146.26 126.599C146.26 125.659 146.11 124.949 145.812 124.47C145.513 123.991 145.071 123.752 144.487 123.752C143.898 123.752 143.452 123.993 143.148 124.477C142.845 124.956 142.694 125.663 142.694 126.599C142.694 127.531 142.845 128.239 143.148 128.722C143.452 129.205 143.898 129.447 144.487 129.447C145.071 129.447 145.513 129.208 145.812 128.729C146.11 128.25 146.26 127.54 146.26 126.599ZM142.694 123.844C142.887 123.484 143.153 123.207 143.491 123.013C143.834 122.82 144.229 122.723 144.678 122.723C145.565 122.723 146.264 123.066 146.774 123.752C147.284 124.433 147.539 125.373 147.539 126.573C147.539 127.79 147.281 128.746 146.767 129.44C146.258 130.13 145.557 130.475 144.665 130.475C144.225 130.475 143.836 130.381 143.498 130.192C143.164 129.999 142.896 129.719 142.694 129.355V130.284H141.481V120.027H142.694V123.844ZM149.628 127.489V122.915H150.841V127.489C150.841 128.153 150.958 128.641 151.19 128.953C151.428 129.265 151.792 129.421 152.285 129.421C152.856 129.421 153.293 129.221 153.596 128.821C153.9 128.417 154.051 127.839 154.051 127.087V122.915H155.271V130.284H154.051V129.177C153.836 129.603 153.542 129.926 153.168 130.146C152.799 130.365 152.366 130.475 151.869 130.475C151.114 130.475 150.551 130.229 150.182 129.737C149.813 129.24 149.628 128.491 149.628 127.489ZM158.56 122.928H161.665V129.342H164.071V130.284H158.046V129.342H160.452V123.87H158.56V122.928ZM160.452 120.06H161.665V121.59H160.452V120.06ZM169.351 127.615C169.351 128.159 169.45 128.57 169.647 128.847C169.85 129.124 170.146 129.262 170.537 129.262H171.955V130.284H170.419C169.694 130.284 169.131 130.053 168.731 129.592C168.336 129.126 168.138 128.467 168.138 127.615V120.937H166.193V119.988H169.351V127.615ZM178.401 123.844V120.027H179.614V130.284H178.401V129.355C178.199 129.719 177.929 129.999 177.591 130.192C177.257 130.381 176.87 130.475 176.43 130.475C175.538 130.475 174.835 130.13 174.321 129.44C173.811 128.746 173.556 127.79 173.556 126.573C173.556 125.373 173.813 124.433 174.328 123.752C174.842 123.066 175.543 122.723 176.43 122.723C176.874 122.723 177.265 122.82 177.604 123.013C177.942 123.202 178.208 123.479 178.401 123.844ZM174.835 126.599C174.835 127.54 174.985 128.25 175.283 128.729C175.582 129.208 176.024 129.447 176.608 129.447C177.193 129.447 177.637 129.205 177.94 128.722C178.248 128.239 178.401 127.531 178.401 126.599C178.401 125.663 178.248 124.956 177.94 124.477C177.637 123.993 177.193 123.752 176.608 123.752C176.024 123.752 175.582 123.991 175.283 124.47C174.985 124.949 174.835 125.659 174.835 126.599Z" fill="#343536"/>
<path d="M54 87C54 84.7909 55.7909 83 58 83H204C206.209 83 208 84.7909 208 87V100.468H54V87Z" fill="black"/>
<ellipse cx="64.4625" cy="92.1311" rx="2.92934" ry="2.779" fill="#343536"/>
<ellipse cx="72.8317" cy="92.1311" rx="2.92934" ry="2.779" fill="#343536"/>
<ellipse cx="81.2008" cy="92.1311" rx="2.92934" ry="2.779" fill="#343536"/>
<path d="M123 198.333L123 251.984C123 257.137 127.177 261.315 132.331 261.315L227.97 261.315" stroke="#4DADD7" stroke-width="2.33267" stroke-linejoin="round"/>
<path d="M229.953 261.315L219.806 267.263L219.806 255.367L229.953 261.315Z" fill="#4DADD7"/>
<line y1="-1.16633" x2="4.66533" y2="-1.16633" transform="matrix(-9.93477e-08 -1 -1 -2.91658e-07 121.834 200.665)" stroke="#4DADD7" stroke-width="2.33267"/>
<path d="M296 192.667L296 135.517C296 130.364 300.177 126.186 305.331 126.186L377.643 126.186" stroke="#4DADD7" stroke-width="2.33267" stroke-linejoin="round"/>
<line x1="375.311" y1="126.186" x2="379.976" y2="126.186" stroke="#4DADD7" stroke-width="2.33267"/>
<path d="M295.999 194.65L301.947 184.503L290.051 184.503L295.999 194.65Z" fill="#4DADD7"/>
<rect x="361" y="119" width="19" height="12" fill="url(#paint3_linear_3575_60842)"/>
<path d="M469 213.333L469 251.822C469 256.975 464.823 261.152 459.669 261.152L348.868 261.152" stroke="#4DADD7" stroke-width="2.33267" stroke-linejoin="round"/>
<line x1="351.2" y1="261.152" x2="346.535" y2="261.152" stroke="#4DADD7" stroke-width="2.33267"/>
<path d="M469.001 211.35L463.053 221.497L474.949 221.497L469.001 211.35Z" fill="#4DADD7"/>
<g filter="url(#filter1_d_3575_60842)">
<rect x="104" y="242" width="40" height="40" rx="6" fill="#007DB4"/>
<rect x="104.5" y="242.5" width="39" height="39" rx="5.5" stroke="#007DB4" stroke-opacity="0.29"/>
</g>
<g filter="url(#filter2_d_3575_60842)">
<rect x="449" y="242" width="40" height="40" rx="6" fill="#007DB4"/>
<rect x="449.5" y="242.5" width="39" height="39" rx="5.5" stroke="#007DB4" stroke-opacity="0.29"/>
</g>
<rect x="365" y="267" width="19" height="12" transform="rotate(-180 365 267)" fill="url(#paint4_linear_3575_60842)"/>
<rect x="116" y="215" width="19" height="12" transform="rotate(-90 116 215)" fill="url(#paint5_linear_3575_60842)"/>
<g filter="url(#filter3_d_3575_60842)">
<rect x="277" y="110" width="40" height="40" rx="6" fill="black"/>
<rect x="277.5" y="110.5" width="39" height="39" rx="5.5" stroke="#007DB4" stroke-opacity="0.29"/>
</g>
<path fill-rule="evenodd" clip-rule="evenodd" d="M125.206 250.754C124.445 250.383 123.555 250.383 122.794 250.754L113.983 255.052C113.381 255.345 113 255.956 113 256.625V266.527C113 267.559 113.578 268.505 114.496 268.975L122.746 273.201C123.533 273.604 124.467 273.604 125.254 273.201L133.504 268.975C134.422 268.505 135 267.559 135 266.527V256.625C135 255.956 134.619 255.345 134.017 255.052L125.206 250.754ZM123.452 252.102C123.798 251.933 124.202 251.933 124.548 252.102L132.657 256.058L124 260.17L115.343 256.058L123.452 252.102ZM114.5 257.318V266.527C114.5 266.996 114.763 267.426 115.18 267.64L123.25 271.773V261.474L114.5 257.318ZM124.75 271.773L132.82 267.64C133.237 267.426 133.5 266.996 133.5 266.527V257.318L124.75 261.474V271.773Z" fill="white"/>
<path fill-rule="evenodd" clip-rule="evenodd" d="M470.206 250.754C469.445 250.383 468.555 250.383 467.794 250.754L458.983 255.052C458.381 255.345 458 255.956 458 256.625V266.527C458 267.559 458.578 268.505 459.496 268.975L467.746 273.201C468.533 273.604 469.467 273.604 470.254 273.201L478.504 268.975C479.422 268.505 480 267.559 480 266.527V256.625C480 255.956 479.619 255.345 479.017 255.052L470.206 250.754ZM468.452 252.102C468.798 251.933 469.202 251.933 469.548 252.102L477.657 256.058L469 260.17L460.343 256.058L468.452 252.102ZM459.5 257.318V266.527C459.5 266.996 459.763 267.426 460.18 267.64L468.25 271.773V261.474L459.5 257.318ZM469.75 271.773L477.82 267.64C478.237 267.426 478.5 266.996 478.5 266.527V257.318L469.75 261.474V271.773Z" fill="white"/>
<rect width="24" height="24" transform="translate(285 118)" fill="black"/>
<path d="M296.24 119.3C295.936 119.018 295.919 118.543 296.2 118.24C296.482 117.936 296.957 117.919 297.26 118.2L300.76 121.45C300.913 121.592 301 121.791 301 122C301 122.209 300.913 122.408 300.76 122.55L297.26 125.8C296.957 126.081 296.482 126.064 296.2 125.76C295.919 125.457 295.936 124.982 296.24 124.7L298.457 122.641C297.986 122.549 297.499 122.5 297 122.5C292.858 122.5 289.5 125.858 289.5 130C289.5 134.142 292.858 137.5 297 137.5C301.142 137.5 304.5 134.142 304.5 130C304.5 129.036 304.319 128.117 303.989 127.273C303.838 126.887 304.029 126.452 304.415 126.301C304.801 126.151 305.236 126.341 305.386 126.727C305.783 127.743 306 128.847 306 130C306 134.971 301.971 139 297 139C292.029 139 288 134.971 288 130C288 125.029 292.029 121 297 121C297.389 121 297.773 121.025 298.149 121.073L296.24 119.3Z" fill="white"/>
<circle cx="144" cy="244" r="7" fill="white"/>
<path d="M143.75 240C144.164 240 144.5 240.336 144.5 240.75V243H146.75C147.164 243 147.5 243.336 147.5 243.75C147.5 244.164 147.164 244.5 146.75 244.5H144.5V246.75C144.5 247.164 144.164 247.5 143.75 247.5C143.336 247.5 143 247.164 143 246.75V244.5H140.75C140.336 244.5 140 244.164 140 243.75C140 243.336 140.336 243 140.75 243H143V240.75C143 240.336 143.336 240 143.75 240Z" fill="#007DB4"/>
<path fill-rule="evenodd" clip-rule="evenodd" d="M136 243.75C136 239.47 139.47 236 143.75 236C148.03 236 151.5 239.47 151.5 243.75C151.5 248.03 148.03 251.5 143.75 251.5C139.47 251.5 136 248.03 136 243.75ZM143.75 237.5C140.298 237.5 137.5 240.298 137.5 243.75C137.5 247.202 140.298 250 143.75 250C147.202 250 150 247.202 150 243.75C150 240.298 147.202 237.5 143.75 237.5Z" fill="#007DB4"/>
<rect x="0.5" y="0.5" width="590" height="393" rx="7.5" stroke="black" stroke-opacity="0.04"/>
<defs>
<filter id="filter0_d_3575_60842" x="206" y="175" width="180" height="180" filterUnits="userSpaceOnUse" color-interpolation-filters="sRGB">
<feFlood flood-opacity="0" result="BackgroundImageFix"/>
<feColorMatrix in="SourceAlpha" type="matrix" values="0 0 0 0 0 0 0 0 0 0 0 0 0 0 0 0 0 0 127 0" result="hardAlpha"/>
<feOffset dy="4"/>
<feGaussianBlur stdDeviation="20"/>
<feComposite in2="hardAlpha" operator="out"/>
<feColorMatrix type="matrix" values="0 0 0 0 0.796078 0 0 0 0 0.984314 0 0 0 0 0.952941 0 0 0 0.8 0"/>
<feBlend mode="normal" in2="BackgroundImageFix" result="effect1_dropShadow_3575_60842"/>
<feBlend mode="normal" in="SourceGraphic" in2="effect1_dropShadow_3575_60842" result="shape"/>
</filter>
<filter id="filter1_d_3575_60842" x="94" y="234" width="60" height="60" filterUnits="userSpaceOnUse" color-interpolation-filters="sRGB">
<feFlood flood-opacity="0" result="BackgroundImageFix"/>
<feColorMatrix in="SourceAlpha" type="matrix" values="0 0 0 0 0 0 0 0 0 0 0 0 0 0 0 0 0 0 127 0" result="hardAlpha"/>
<feOffset dy="2"/>
<feGaussianBlur stdDeviation="5"/>
<feComposite in2="hardAlpha" operator="out"/>
<feColorMatrix type="matrix" values="0 0 0 0 0 0 0 0 0 0.490196 0 0 0 0 0.705882 0 0 0 0.5 0"/>
<feBlend mode="normal" in2="BackgroundImageFix" result="effect1_dropShadow_3575_60842"/>
<feBlend mode="normal" in="SourceGraphic" in2="effect1_dropShadow_3575_60842" result="shape"/>
</filter>
<filter id="filter2_d_3575_60842" x="439" y="234" width="60" height="60" filterUnits="userSpaceOnUse" color-interpolation-filters="sRGB">
<feFlood flood-opacity="0" result="BackgroundImageFix"/>
<feColorMatrix in="SourceAlpha" type="matrix" values="0 0 0 0 0 0 0 0 0 0 0 0 0 0 0 0 0 0 127 0" result="hardAlpha"/>
<feOffset dy="2"/>
<feGaussianBlur stdDeviation="5"/>
<feComposite in2="hardAlpha" operator="out"/>
<feColorMatrix type="matrix" values="0 0 0 0 0 0 0 0 0 0.490196 0 0 0 0 0.705882 0 0 0 0.5 0"/>
<feBlend mode="normal" in2="BackgroundImageFix" result="effect1_dropShadow_3575_60842"/>
<feBlend mode="normal" in="SourceGraphic" in2="effect1_dropShadow_3575_60842" result="shape"/>
</filter>
<filter id="filter3_d_3575_60842" x="267" y="102" width="60" height="60" filterUnits="userSpaceOnUse" color-interpolation-filters="sRGB">
<feFlood flood-opacity="0" result="BackgroundImageFix"/>
<feColorMatrix in="SourceAlpha" type="matrix" values="0 0 0 0 0 0 0 0 0 0 0 0 0 0 0 0 0 0 127 0" result="hardAlpha"/>
<feOffset dy="2"/>
<feGaussianBlur stdDeviation="5"/>
<feComposite in2="hardAlpha" operator="out"/>
<feColorMatrix type="matrix" values="0 0 0 0 0 0 0 0 0 0.490196 0 0 0 0 0.705882 0 0 0 0.5 0"/>
<feBlend mode="normal" in2="BackgroundImageFix" result="effect1_dropShadow_3575_60842"/>
<feBlend mode="normal" in="SourceGraphic" in2="effect1_dropShadow_3575_60842" result="shape"/>
</filter>
<linearGradient id="paint0_linear_3575_60842" x1="0" y1="394" x2="428.593" y2="-132.265" gradientUnits="userSpaceOnUse">
<stop stop-color="#CEFCF2"/>
<stop offset="1" stop-color="#63D0FF"/>
</linearGradient>
<radialGradient id="paint1_radial_3575_60842" cx="0" cy="0" r="1" gradientUnits="userSpaceOnUse" gradientTransform="translate(395.065 102.214) rotate(48.5645) scale(118.883 155.452)">
<stop stop-color="white" stop-opacity="0.14"/>
<stop offset="1" stop-color="white" stop-opacity="0"/>
</radialGradient>
<radialGradient id="paint2_radial_3575_60842" cx="0" cy="0" r="1" gradientUnits="userSpaceOnUse" gradientTransform="translate(69.0652 102.214) rotate(48.5645) scale(118.883 155.452)">
<stop stop-color="white" stop-opacity="0.14"/>
<stop offset="1" stop-color="white" stop-opacity="0"/>
</radialGradient>
<linearGradient id="paint3_linear_3575_60842" x1="380" y1="125" x2="361" y2="125" gradientUnits="userSpaceOnUse">
<stop stop-color="#86DFFB"/>
<stop offset="0.417973" stop-color="#88DFFB"/>
<stop offset="1" stop-color="#89E0FB" stop-opacity="0"/>
</linearGradient>
<linearGradient id="paint4_linear_3575_60842" x1="384" y1="273" x2="365" y2="273" gradientUnits="userSpaceOnUse">
<stop stop-color="#ACEEF7"/>
<stop offset="0.417973" stop-color="#A6ECF7"/>
<stop offset="1" stop-color="#9DE8F8" stop-opacity="0"/>
</linearGradient>
<linearGradient id="paint5_linear_3575_60842" x1="135" y1="221" x2="116" y2="221" gradientUnits="userSpaceOnUse">
<stop stop-color="#ACEEF7"/>
<stop offset="0.417973" stop-color="#A6ECF7"/>
<stop offset="1" stop-color="#9DE8F8" stop-opacity="0"/>
</linearGradient>
</defs>
</svg>
